<mxfile host="Electron" modified="2024-09-06T01:11:55.671Z" agent="Mozilla/5.0 (Windows NT 10.0; Win64; x64) AppleWebKit/537.36 (KHTML, like Gecko) draw.io/22.1.11 Chrome/114.0.5735.289 Electron/25.9.8 Safari/537.36" etag="EfqVbvBdDSeMajf4_XC4" version="22.1.11" type="device">
  <diagram name="第 1 页" id="uZAVDkzC3ItG0a8VjSM7">
    <mxGraphModel dx="794" dy="519" grid="1" gridSize="10" guides="1" tooltips="1" connect="1" arrows="1" fold="1" page="1" pageScale="1" pageWidth="827" pageHeight="1169" math="0" shadow="0">
      <root>
        <mxCell id="0" />
        <mxCell id="1" parent="0" />
        <mxCell id="EQ6hkrVJE3MncelcZtw5-1" value="&lt;font style=&quot;font-size: 16px;&quot; face=&quot;Comic Sans MS&quot;&gt;void main()&lt;br&gt;&lt;div style=&quot;&quot;&gt;&lt;span style=&quot;background-color: initial;&quot;&gt;{ ...&lt;/span&gt;&lt;/div&gt;&lt;div style=&quot;&quot;&gt;printf(&quot;%f&quot;, fact(3));&lt;/div&gt;&lt;div style=&quot;&quot;&gt;...&lt;/div&gt;&lt;div style=&quot;&quot;&gt;}&lt;/div&gt;&lt;/font&gt;" style="text;html=1;strokeColor=none;fillColor=none;align=left;verticalAlign=middle;whiteSpace=wrap;rounded=0;" vertex="1" parent="1">
          <mxGeometry x="80" y="80" width="200" height="120" as="geometry" />
        </mxCell>
        <mxCell id="EQ6hkrVJE3MncelcZtw5-9" value="" style="group" vertex="1" connectable="0" parent="1">
          <mxGeometry x="360" y="80" width="120" height="120" as="geometry" />
        </mxCell>
        <mxCell id="EQ6hkrVJE3MncelcZtw5-2" value="" style="rounded=0;whiteSpace=wrap;html=1;fillColor=none;" vertex="1" parent="EQ6hkrVJE3MncelcZtw5-9">
          <mxGeometry width="120" height="120" as="geometry" />
        </mxCell>
        <mxCell id="EQ6hkrVJE3MncelcZtw5-4" value="&lt;div style=&quot;font-size: 16px;&quot;&gt;&lt;font face=&quot;Comic Sans MS&quot; style=&quot;font-size: 16px;&quot;&gt;fact(3)&lt;/font&gt;&lt;/div&gt;&lt;font face=&quot;HKBUhRV3NCB0MSSQdsBY&quot; style=&quot;font-size: 16px;&quot;&gt;&lt;div style=&quot;&quot;&gt;&lt;span style=&quot;background-color: initial;&quot;&gt;{ ...&lt;/span&gt;&lt;/div&gt;&lt;div style=&quot;&quot;&gt;res =3*fact(2)&lt;/div&gt;&lt;div style=&quot;&quot;&gt;...&lt;/div&gt;&lt;div style=&quot;&quot;&gt;}&lt;/div&gt;&lt;/font&gt;" style="text;html=1;strokeColor=none;fillColor=none;align=left;verticalAlign=middle;whiteSpace=wrap;rounded=0;" vertex="1" parent="EQ6hkrVJE3MncelcZtw5-9">
          <mxGeometry x="10" width="110" height="120" as="geometry" />
        </mxCell>
        <mxCell id="EQ6hkrVJE3MncelcZtw5-26" value="" style="rounded=0;whiteSpace=wrap;html=1;fillColor=none;strokeColor=none;" vertex="1" parent="EQ6hkrVJE3MncelcZtw5-9">
          <mxGeometry x="70" y="45" width="40" height="30" as="geometry" />
        </mxCell>
        <mxCell id="EQ6hkrVJE3MncelcZtw5-10" value="" style="group" vertex="1" connectable="0" parent="1">
          <mxGeometry x="360" y="280" width="120" height="120" as="geometry" />
        </mxCell>
        <mxCell id="EQ6hkrVJE3MncelcZtw5-11" value="" style="rounded=0;whiteSpace=wrap;html=1;fillColor=none;" vertex="1" parent="EQ6hkrVJE3MncelcZtw5-10">
          <mxGeometry width="120" height="120" as="geometry" />
        </mxCell>
        <mxCell id="EQ6hkrVJE3MncelcZtw5-12" value="&lt;div style=&quot;font-size: 16px;&quot;&gt;&lt;font face=&quot;Comic Sans MS&quot; style=&quot;font-size: 16px;&quot;&gt;fact(2)&lt;/font&gt;&lt;/div&gt;&lt;font face=&quot;HKBUhRV3NCB0MSSQdsBY&quot; style=&quot;font-size: 16px;&quot;&gt;&lt;div style=&quot;&quot;&gt;&lt;span style=&quot;background-color: initial;&quot;&gt;{ ...&lt;/span&gt;&lt;/div&gt;&lt;div style=&quot;&quot;&gt;res =2*fact(1)&lt;/div&gt;&lt;div style=&quot;&quot;&gt;...&lt;/div&gt;&lt;div style=&quot;&quot;&gt;}&lt;/div&gt;&lt;/font&gt;" style="text;html=1;strokeColor=none;fillColor=none;align=left;verticalAlign=middle;whiteSpace=wrap;rounded=0;" vertex="1" parent="EQ6hkrVJE3MncelcZtw5-10">
          <mxGeometry x="10" width="110" height="120" as="geometry" />
        </mxCell>
        <mxCell id="EQ6hkrVJE3MncelcZtw5-28" value="" style="rounded=0;whiteSpace=wrap;html=1;fillColor=none;strokeColor=none;" vertex="1" parent="EQ6hkrVJE3MncelcZtw5-10">
          <mxGeometry x="70" y="42.5" width="50" height="35" as="geometry" />
        </mxCell>
        <mxCell id="EQ6hkrVJE3MncelcZtw5-13" value="" style="group" vertex="1" connectable="0" parent="1">
          <mxGeometry x="80" y="280" width="120" height="120" as="geometry" />
        </mxCell>
        <mxCell id="EQ6hkrVJE3MncelcZtw5-14" value="" style="rounded=0;whiteSpace=wrap;html=1;fillColor=none;" vertex="1" parent="EQ6hkrVJE3MncelcZtw5-13">
          <mxGeometry width="120" height="120" as="geometry" />
        </mxCell>
        <mxCell id="EQ6hkrVJE3MncelcZtw5-15" value="&lt;div style=&quot;font-size: 16px;&quot;&gt;&lt;font face=&quot;Comic Sans MS&quot; style=&quot;font-size: 16px;&quot;&gt;fact(1)&lt;/font&gt;&lt;/div&gt;&lt;font face=&quot;HKBUhRV3NCB0MSSQdsBY&quot; style=&quot;font-size: 16px;&quot;&gt;&lt;div style=&quot;&quot;&gt;&lt;span style=&quot;background-color: initial;&quot;&gt;{ if(n==1)&lt;/span&gt;&lt;/div&gt;&lt;div style=&quot;&quot;&gt;&amp;nbsp; &amp;nbsp; &amp;nbsp;res =1;&lt;/div&gt;&lt;div style=&quot;&quot;&gt;&amp;nbsp; return res;&lt;/div&gt;&lt;div style=&quot;&quot;&gt;}&lt;/div&gt;&lt;/font&gt;" style="text;html=1;strokeColor=none;fillColor=none;align=left;verticalAlign=middle;whiteSpace=wrap;rounded=0;" vertex="1" parent="EQ6hkrVJE3MncelcZtw5-13">
          <mxGeometry x="10" width="110" height="120" as="geometry" />
        </mxCell>
        <mxCell id="EQ6hkrVJE3MncelcZtw5-17" value="" style="rounded=0;whiteSpace=wrap;html=1;fillColor=none;strokeColor=none;" vertex="1" parent="1">
          <mxGeometry x="130" y="125" width="40" height="30" as="geometry" />
        </mxCell>
        <mxCell id="EQ6hkrVJE3MncelcZtw5-22" value="" style="curved=1;endArrow=classic;html=1;rounded=0;exitX=0.5;exitY=0;exitDx=0;exitDy=0;entryX=-0.017;entryY=0.161;entryDx=0;entryDy=0;entryPerimeter=0;" edge="1" parent="1" source="EQ6hkrVJE3MncelcZtw5-17" target="EQ6hkrVJE3MncelcZtw5-2">
          <mxGeometry width="50" height="50" relative="1" as="geometry">
            <mxPoint x="380" y="270" as="sourcePoint" />
            <mxPoint x="430" y="220" as="targetPoint" />
            <Array as="points">
              <mxPoint x="240" y="70" />
              <mxPoint x="320" y="70" />
            </Array>
          </mxGeometry>
        </mxCell>
        <mxCell id="EQ6hkrVJE3MncelcZtw5-23" value="①函数调用" style="text;html=1;strokeColor=none;fillColor=none;align=center;verticalAlign=middle;whiteSpace=wrap;rounded=0;" vertex="1" parent="1">
          <mxGeometry x="230" y="40" width="90" height="30" as="geometry" />
        </mxCell>
        <mxCell id="EQ6hkrVJE3MncelcZtw5-24" value="" style="curved=1;endArrow=classic;html=1;rounded=0;exitX=0.5;exitY=1;exitDx=0;exitDy=0;entryX=1;entryY=0;entryDx=0;entryDy=0;" edge="1" parent="1" source="EQ6hkrVJE3MncelcZtw5-26" target="EQ6hkrVJE3MncelcZtw5-12">
          <mxGeometry width="50" height="50" relative="1" as="geometry">
            <mxPoint x="380" y="270" as="sourcePoint" />
            <mxPoint x="550" y="270" as="targetPoint" />
            <Array as="points">
              <mxPoint x="550" y="210" />
            </Array>
          </mxGeometry>
        </mxCell>
        <mxCell id="EQ6hkrVJE3MncelcZtw5-25" value="②递归调用" style="text;html=1;strokeColor=none;fillColor=none;align=center;verticalAlign=middle;whiteSpace=wrap;rounded=0;" vertex="1" parent="1">
          <mxGeometry x="480" y="210" width="20" height="30" as="geometry" />
        </mxCell>
        <mxCell id="EQ6hkrVJE3MncelcZtw5-27" value="" style="rounded=0;whiteSpace=wrap;html=1;fillColor=none;strokeColor=none;" vertex="1" parent="1">
          <mxGeometry x="440" y="135" width="40" height="30" as="geometry" />
        </mxCell>
        <mxCell id="EQ6hkrVJE3MncelcZtw5-29" value="" style="curved=1;endArrow=classic;html=1;rounded=0;exitX=0.5;exitY=1;exitDx=0;exitDy=0;entryX=1;entryY=1;entryDx=0;entryDy=0;" edge="1" parent="1" source="EQ6hkrVJE3MncelcZtw5-28" target="EQ6hkrVJE3MncelcZtw5-15">
          <mxGeometry width="50" height="50" relative="1" as="geometry">
            <mxPoint x="380" y="270" as="sourcePoint" />
            <mxPoint x="430" y="220" as="targetPoint" />
            <Array as="points">
              <mxPoint x="410" y="400" />
              <mxPoint x="290" y="450" />
            </Array>
          </mxGeometry>
        </mxCell>
        <mxCell id="EQ6hkrVJE3MncelcZtw5-30" value="③递归调用" style="text;html=1;strokeColor=none;fillColor=none;align=center;verticalAlign=middle;whiteSpace=wrap;rounded=0;" vertex="1" parent="1">
          <mxGeometry x="260" y="400" width="90" height="30" as="geometry" />
        </mxCell>
        <mxCell id="EQ6hkrVJE3MncelcZtw5-31" value="" style="endArrow=classic;html=1;rounded=0;exitX=1;exitY=0.5;exitDx=0;exitDy=0;entryX=0;entryY=0.5;entryDx=0;entryDy=0;" edge="1" parent="1" source="EQ6hkrVJE3MncelcZtw5-15" target="EQ6hkrVJE3MncelcZtw5-11">
          <mxGeometry width="50" height="50" relative="1" as="geometry">
            <mxPoint x="380" y="270" as="sourcePoint" />
            <mxPoint x="430" y="220" as="targetPoint" />
          </mxGeometry>
        </mxCell>
        <mxCell id="EQ6hkrVJE3MncelcZtw5-32" value="④递归返回" style="text;html=1;strokeColor=none;fillColor=none;align=center;verticalAlign=middle;whiteSpace=wrap;rounded=0;" vertex="1" parent="1">
          <mxGeometry x="230" y="310" width="90" height="30" as="geometry" />
        </mxCell>
        <mxCell id="EQ6hkrVJE3MncelcZtw5-33" value="" style="endArrow=classic;html=1;rounded=0;exitX=0.5;exitY=0;exitDx=0;exitDy=0;entryX=0.5;entryY=1;entryDx=0;entryDy=0;" edge="1" parent="1" source="EQ6hkrVJE3MncelcZtw5-12" target="EQ6hkrVJE3MncelcZtw5-4">
          <mxGeometry width="50" height="50" relative="1" as="geometry">
            <mxPoint x="380" y="270" as="sourcePoint" />
            <mxPoint x="430" y="220" as="targetPoint" />
          </mxGeometry>
        </mxCell>
        <mxCell id="EQ6hkrVJE3MncelcZtw5-34" value="⑤递归返回" style="text;html=1;strokeColor=none;fillColor=none;align=center;verticalAlign=middle;whiteSpace=wrap;rounded=0;" vertex="1" parent="1">
          <mxGeometry x="404" y="225" width="20" height="30" as="geometry" />
        </mxCell>
        <mxCell id="EQ6hkrVJE3MncelcZtw5-37" value="" style="rounded=0;whiteSpace=wrap;html=1;fillColor=none;" vertex="1" parent="1">
          <mxGeometry x="80" y="80" width="160" height="120" as="geometry" />
        </mxCell>
        <mxCell id="EQ6hkrVJE3MncelcZtw5-38" style="edgeStyle=orthogonalEdgeStyle;rounded=0;orthogonalLoop=1;jettySize=auto;html=1;exitX=0;exitY=0.5;exitDx=0;exitDy=0;" edge="1" parent="1" source="EQ6hkrVJE3MncelcZtw5-2" target="EQ6hkrVJE3MncelcZtw5-37">
          <mxGeometry relative="1" as="geometry" />
        </mxCell>
        <mxCell id="EQ6hkrVJE3MncelcZtw5-39" value="⑥函数返回" style="text;html=1;strokeColor=none;fillColor=none;align=center;verticalAlign=middle;whiteSpace=wrap;rounded=0;" vertex="1" parent="1">
          <mxGeometry x="250" y="140" width="90" height="30" as="geometry" />
        </mxCell>
      </root>
    </mxGraphModel>
  </diagram>
</mxfile>
